<svg xmlns="http://www.w3.org/2000/svg" viewBox="0 0 89.15 89.6"><defs><style>.cls-1{fill:#414042;}</style></defs><title>Ресурс 2</title><g id="Слой_2" data-name="Слой 2"><g id="Layer_1" data-name="Layer 1"><path class="cls-1" d="M.67.24A2,2,0,0,0,.2.94c-.27.69-.26,87,0,87.75a1.41,1.41,0,0,0,.52.73c.2.12,11.78.18,32.33.18h32l.42-.45.42-.46L66,68.1l.09-20.59,10.08-13.3C81.69,26.9,86.37,20.7,86.54,20.44a1.79,1.79,0,0,0-.06-2.06l-.39-.53,1.3-1.8c1.66-2.3,1.75-2.48,1.76-3.63,0-1.35-.49-2.15-2.1-3.33s-2.34-1.46-3.37-1.32-1.75.63-3.27,2.64c-1,1.33-1.46,1.81-1.65,1.73a4.47,4.47,0,0,0-.93-.2c-.59-.07-.73,0-1.29.59l-.62.66-2.66-.65c-2.66-.65-3.18-.73-3.67-.53a16.4,16.4,0,0,0-1.89,2.28l-1.63,2.18-.1-.85a9.32,9.32,0,0,0-.22-1.19c-.07-.19-3.28-3.51-7.17-7.39l-7-7H26.25C5.79,0,.91.06.67.24ZM49.36,9.37v6.22l.43.43.43.43H62.83v4.32l-1.4,1.88c-1.49,2-1.74,2.59-1.41,3.41a1.36,1.36,0,0,0,2.31.38l.5-.51v5.15L54.88,41.82l-8,10.73L45.34,57.3c-.87,2.6-1.58,4.9-1.58,5.1a1.62,1.62,0,0,0,.28.75c.26.37.25.44-.19,1.1a3.84,3.84,0,0,0-.56,1.3c-.08.49,0,.67.43,1.12A1.49,1.49,0,0,0,45,67.2c.64,0,.77-.08,1.28-.8s.62-.78,1.12-.7a2,2,0,0,0,1-.06c.23-.08,2.17-1.37,4.33-2.87l3.91-2.71,3-3.9c1.63-2.16,3-4,3.13-4.08s.17,5.83.17,17.1V86.45H3.16V3.15h46.2V9.37Zm7.17,0,3.94,3.94h-8V9.36c0-2.17,0-3.94,0-3.94s1.81,1.77,4,3.94Zm28.83,2.5.56.48-1.06,1.4c-.59.77-1.17,1.54-1.3,1.72s-.29.28-1.2-.45l-1-.78,1.23-1.69,1.24-1.69.46.27a9.84,9.84,0,0,1,1,.74Zm-13,3.69a7.51,7.51,0,0,1,1.36.41c.08.08-6.67,9.5-7.73,10.8,0,0-.06-1.11-.06-2.56V21.58l2.38-3.18a27.23,27.23,0,0,1,2.58-3.17c.12,0,.77.15,1.47.32Zm8.19,2.24a25,25,0,0,1,2.35,2C83,19.88,70.11,36.9,69.8,37.2s-.7-.12-2.63-1.47a17.21,17.21,0,0,1-2.35-1.83c.07-.28,13.16-18,13.29-18a27.22,27.22,0,0,1,2.49,1.86ZM66,38.67a8,8,0,0,1,1.36,1.11c0,.33-1.62,2.22-1.81,2.1s-4.18-3-4.29-3.12a5.07,5.07,0,0,1,.76-1.2l.84-1.14.89.64c.49.36,1.49,1.08,2.25,1.61Zm-4.39,4.26,2.21,1.63L63,45.72l-.86,1.16L60,45.27a16.48,16.48,0,0,1-2.18-1.77,11,11,0,0,1,1.58-2.19s1.09.73,2.29,1.62Zm-3.45,4.94,2,1.52-.82,1.07-.88,1.15a46.49,46.49,0,0,1-4.22-3.31c-.1-.26,1.41-2.12,1.65-2s1.13.76,2.25,1.6Zm-3.84,4.56c1.06.83,2,1.57,2.08,1.66s-1.3,2.11-1.54,2-1.11-.73-2.25-1.5l-2.06-1.4L51,52.6a7.14,7.14,0,0,1,1.35-1.68s1,.68,2,1.51Zm-3.32,5a7.1,7.1,0,0,1,1.57,1.37c0,.07-1.13.85-2.43,1.73A8.43,8.43,0,0,1,47.54,62a.79.79,0,0,1-.28-.14S49,56.7,49.09,56.39c0-.13.12-.22.18-.22A18.91,18.91,0,0,1,51,57.42Z"/><path class="cls-1" d="M50,21c-.16.1-1.73,1.91-3.47,4s-3.24,3.86-3.31,3.86a5.58,5.58,0,0,1-1-.86c-1.08-1.11-1.66-1.36-2.39-1.06a1.6,1.6,0,0,0-1,1.72,9.76,9.76,0,0,0,2,2.36c1.56,1.53,2,1.86,2.42,1.86a1.57,1.57,0,0,0,.89-.31c.31-.27,6.71-7.93,7.69-9.21a1.56,1.56,0,0,0,0-2.1A1.6,1.6,0,0,0,50,21Z"/><path class="cls-1" d="M12.55,28.71a1.11,1.11,0,0,0-.47,1.06c0,1,.24,1.34,1,1.56.93.25,18.17.23,18.92,0a1.57,1.57,0,0,0,.49-2.61c-.36-.33-.68-.34-9.94-.34-9.41,0-9.57,0-10,.36Z"/><path class="cls-1" d="M50.13,38.88A49.92,49.92,0,0,0,46.55,43l-3.21,3.9-1.11-1c-1-.89-1.2-1-1.79-1a1.22,1.22,0,0,0-1.13.54c-.85,1-.59,1.56,1.68,3.77a9.44,9.44,0,0,0,2.09,1.67,1.54,1.54,0,0,0,1.47-.52c.12-.17,1.93-2.36,4-4.85,4.22-5.06,4.3-5.2,3.28-6.22a1.33,1.33,0,0,0-1.7-.31Z"/><path class="cls-1" d="M12.87,46.39a1.62,1.62,0,0,0-.37,2.52l.44.44H32l.49-.42a1.57,1.57,0,0,0,.08-2.24l-.4-.4-9.48,0c-6.69,0-9.59,0-9.84.15Z"/><path class="cls-1" d="M13.31,64.18a1.59,1.59,0,0,0-.82,2.64l.4.38h9.58c6,0,9.7-.07,9.91-.18a1.66,1.66,0,0,0,.46-2,1.14,1.14,0,0,0-.91-.8c-.66-.18-17.64-.23-18.62,0Z"/></g></g></svg>